<svg width="262" height="88" viewBox="0 0 262 88" fill="none" xmlns="http://www.w3.org/2000/svg">
<g clip-path="url(#clip0_307_140)">
<path d="M140.859 86.3792H141.795C141.802 86.7973 142.195 87.1703 142.783 87.1703C143.325 87.1703 143.674 86.8423 143.674 86.4242C143.674 86.0576 143.358 85.8389 142.912 85.7167L142.247 85.5302C141.104 85.2343 140.904 84.5526 140.904 84.0895C140.904 83.1504 141.73 82.5137 142.712 82.5137C143.693 82.5137 144.449 83.1118 144.449 84.1088H143.512C143.512 83.6714 143.183 83.3562 142.686 83.3562C142.228 83.3562 141.853 83.665 141.853 84.083C141.853 84.231 141.898 84.5397 142.512 84.7005L143.144 84.887C143.977 85.1186 144.623 85.5495 144.623 86.3985C144.623 87.3697 143.809 88.0129 142.77 88.0129C141.634 88.0129 140.872 87.2861 140.872 86.3856L140.859 86.3792Z" fill="#6B6B6B"/>
<path d="M146.405 87.9098V82.6035H147.347V87.9098H146.405Z" fill="#6B6B6B"/>
<path d="M149.175 86.3792H150.111C150.117 86.7973 150.511 87.1703 151.099 87.1703C151.641 87.1703 151.99 86.8423 151.99 86.4242C151.99 86.0576 151.673 85.8389 151.228 85.7167L150.563 85.5302C149.42 85.2343 149.22 84.5526 149.22 84.0895C149.22 83.1504 150.046 82.5137 151.028 82.5137C152.009 82.5137 152.765 83.1118 152.765 84.1088H151.828C151.828 83.6714 151.499 83.3562 151.002 83.3562C150.544 83.3562 150.169 83.665 150.169 84.083C150.169 84.231 150.214 84.5397 150.828 84.7005L151.46 84.887C152.293 85.1186 152.939 85.5495 152.939 86.3985C152.939 87.3697 152.125 88.0129 151.086 88.0129C149.95 88.0129 149.188 87.2861 149.188 86.3856L149.175 86.3792Z" fill="#6B6B6B"/>
<path d="M158.072 82.6035V83.4397H156.548V87.9033H155.605V83.4397H154.082V82.6035H158.072Z" fill="#6B6B6B"/>
<path d="M160.615 87.0736H163.03V87.9098H159.686V82.6035H162.952V83.4397H160.615V84.874H162.655V85.7294H160.615V87.0672V87.0736Z" fill="#6B6B6B"/>
<path d="M170.971 87.9098H170.029L169.603 84.3465L168.163 87.3116H167.401L165.955 84.353L165.522 87.9098H164.58L165.232 82.6035H166.052L167.782 86.2504L169.506 82.6035H170.326L170.978 87.9098H170.971Z" fill="#6B6B6B"/>
<path d="M176.137 87.9098L175.672 86.6105H173.58L173.121 87.9098H172.114L174.116 82.6035H175.136L177.131 87.9098H176.137ZM173.864 85.7937H175.388L174.632 83.639L173.87 85.7937H173.864Z" fill="#6B6B6B"/>
<path d="M183.123 82.6035C184.646 82.6035 185.537 83.7613 185.537 85.2663C185.537 86.7713 184.646 87.9098 183.123 87.9098H181.037V82.6035H183.123ZM183.123 87.0736C184.091 87.0736 184.582 86.2568 184.582 85.2727C184.582 84.2887 184.085 83.4461 183.123 83.4461H181.98V87.0736H183.123Z" fill="#6B6B6B"/>
<path d="M188.294 87.0736H190.709V87.9098H187.364V82.6035H190.631V83.4397H188.294V84.874H190.334V85.7294H188.294V87.0672V87.0736Z" fill="#6B6B6B"/>
<path d="M194.86 85.2729C194.86 83.7614 196.048 82.5137 197.572 82.5137C198.333 82.5137 199.018 82.8224 199.483 83.3048L198.805 83.8965C198.488 83.5814 198.056 83.382 197.578 83.382C196.584 83.382 195.815 84.2438 195.815 85.2665C195.815 86.2892 196.571 87.151 197.591 87.151C198.379 87.151 199.108 86.6429 199.108 85.9547H197.584V85.17H200.135C200.135 87.0996 199.089 87.9936 197.61 87.9936C196.041 87.9936 194.866 86.7522 194.866 85.2601L194.86 85.2729Z" fill="#6B6B6B"/>
<path d="M202.769 87.0736H205.184V87.9098H201.839V82.6035H205.106V83.4397H202.769V84.874H204.809V85.7294H202.769V87.0672V87.0736Z" fill="#6B6B6B"/>
<path d="M206.714 86.3792H207.65C207.656 86.7973 208.05 87.1703 208.638 87.1703C209.18 87.1703 209.529 86.8423 209.529 86.4242C209.529 86.0576 209.212 85.8389 208.767 85.7167L208.102 85.5302C206.959 85.2343 206.759 84.5526 206.759 84.0895C206.759 83.1504 207.585 82.5137 208.567 82.5137C209.548 82.5137 210.304 83.1118 210.304 84.1088H209.367C209.367 83.6714 209.038 83.3562 208.541 83.3562C208.083 83.3562 207.708 83.665 207.708 84.083C207.708 84.231 207.753 84.5397 208.367 84.7005L208.999 84.887C209.832 85.1186 210.478 85.5495 210.478 86.3985C210.478 87.3697 209.664 88.0129 208.625 88.0129C207.489 88.0129 206.727 87.2861 206.727 86.3856L206.714 86.3792Z" fill="#6B6B6B"/>
<path d="M215.611 82.6035V83.4397H214.087V87.9033H213.144V83.4397H211.621V82.6035H215.611Z" fill="#6B6B6B"/>
<path d="M220.098 87.9097L219.633 86.6105H217.541L217.083 87.9097H216.076L218.077 82.6035H219.097L221.092 87.9097H220.098ZM218.038 81.9024H217.522C217.561 81.1949 217.929 80.9634 218.239 80.9634C218.581 80.9634 218.755 81.2785 218.929 81.2785C219 81.2785 219.13 81.2078 219.136 80.9634H219.646C219.614 81.6709 219.22 81.8767 218.929 81.8767C218.607 81.8767 218.432 81.5615 218.239 81.5615C218.174 81.5615 218.045 81.6451 218.038 81.9024ZM217.825 85.7937H219.349L218.594 83.639L217.832 85.7937H217.825Z" fill="#6B6B6B"/>
<path d="M222.093 85.2601C222.093 83.7614 223.275 82.5137 224.798 82.5137C226.322 82.5137 227.504 83.7614 227.504 85.2601C227.504 86.7587 226.316 88 224.798 88C223.281 88 222.093 86.7587 222.093 85.2601ZM226.561 85.2601C226.561 84.2438 225.812 83.3884 224.792 83.3884C223.772 83.3884 223.042 84.2438 223.042 85.2601C223.042 86.2763 223.778 87.1253 224.792 87.1253C225.806 87.1253 226.561 86.2763 226.561 85.2601Z" fill="#6B6B6B"/>
<path d="M231.616 85.2601C231.616 83.7614 232.798 82.5137 234.321 82.5137C235.845 82.5137 237.027 83.7614 237.027 85.2601C237.027 86.7587 235.839 88 234.321 88C232.804 88 231.616 86.7587 231.616 85.2601ZM236.084 85.2601C236.084 84.2438 235.335 83.3884 234.315 83.3884C233.295 83.3884 232.565 84.2438 232.565 85.2601C232.565 86.2763 233.301 87.1253 234.315 87.1253C235.329 87.1253 236.084 86.2763 236.084 85.2601Z" fill="#6B6B6B"/>
<path d="M241.805 82.6035H242.747V87.9098H241.889L239.764 84.3401V87.9098H238.822V82.6035H239.713L241.805 86.1474V82.6035Z" fill="#6B6B6B"/>
<path d="M245.827 87.0736H247.899V87.9098H244.884V82.6035H245.827V87.0672V87.0736Z" fill="#6B6B6B"/>
<path d="M249.513 87.9098V82.6035H250.456V87.9098H249.513Z" fill="#6B6B6B"/>
<path d="M255.576 82.6035H256.519V87.9098H255.66L253.536 84.3401V87.9098H252.593V82.6035H253.484L255.576 86.1474V82.6035Z" fill="#6B6B6B"/>
<path d="M259.585 87.0736H262V87.9098H258.656V82.6035H261.923V83.4397H259.585V84.874H261.626V85.7294H259.585V87.0672V87.0736Z" fill="#6B6B6B"/>
<path d="M13.0419 19.7583H0.432617V71.2642H13.0419V19.7583Z" fill="#01DD01"/>
<path d="M106.64 18.9868C93.6625 18.9868 79.6909 27.2195 79.6909 45.2929C79.6909 63.3663 93.1783 71.4189 106.549 71.4189C119.921 71.4189 133.589 63.3406 133.589 45.2929C133.589 27.2453 119.617 18.9868 106.64 18.9868ZM106.73 59.5844C96.1482 59.5844 92.3777 52.2007 92.3777 45.2865C92.3777 36.5714 98.111 30.7184 106.64 30.7184C115.169 30.7184 120.902 36.5714 120.902 45.2865C120.902 52.2007 117.177 59.5844 106.73 59.5844Z" fill="#01DD01"/>
<path d="M170.061 18.9033C163.037 18.9033 156.322 19.0448 150.408 19.0705H140.498V71.0524H153.107L152.991 36.906C152.991 33.0018 156.122 31.1495 159.57 30.532C163.405 29.8503 168.441 29.8631 172.205 30.6671C177.286 31.7476 177.925 35.6903 177.925 40.2762V71.0524H190.528V38.7905C190.528 24.4475 184.511 18.9033 170.055 18.9033H170.061Z" fill="#01DD01"/>
<path d="M227.02 57.9441C223.404 59.1146 219.427 59.4941 218.071 59.4941C214.01 59.4941 212.635 58.2657 212.635 54.6317V30.1136H228.44V18.5235H212.635V6.46387H201.504C201.504 18.099 201.465 29.747 201.388 39.1182C201.42 46.682 201.439 54.2393 201.439 61.8031C201.439 61.9511 201.439 62.1633 201.439 62.4335C203.886 68.2028 209.561 71.1357 218.439 71.1357C220.389 71.1357 224.192 70.5954 228.291 69.3927L229.828 68.9425V57.0372L227.02 57.9505V57.9441Z" fill="#01DD01"/>
<path d="M6.74046 16.0922C10.4631 16.0922 13.4809 13.0859 13.4809 9.37741C13.4809 5.66892 10.4631 2.6626 6.74046 2.6626C3.01781 2.6626 0 5.66892 0 9.37741C0 13.0859 3.01781 16.0922 6.74046 16.0922Z" fill="#0043EB"/>
<path d="M33.9282 19.7583H21.3188V71.2642H33.9282V19.7583Z" fill="#01DD01"/>
<path d="M31.2618 30.7698C31.0229 30.7698 30.7904 30.7505 30.5516 30.7505C30.3579 30.7505 30.1706 30.7634 29.9834 30.7634C30.1771 30.7634 30.3579 30.7826 30.5516 30.7826C30.7904 30.7826 31.0229 30.7698 31.2618 30.7634V30.7698Z" fill="#01DD01"/>
<path d="M56.5126 38.2691C49.1846 42.9 40.5331 45.6335 31.2617 45.7622C48.5519 46.1224 62.6591 59.5648 63.9956 76.5319C68.5732 76.4998 73.706 76.4741 79.0777 76.4548C78.1803 60.3945 69.3867 46.3989 56.5126 38.2627V38.2691Z" fill="#01DD01"/>
<path d="M79.0777 0.0771817C73.706 0.0643181 68.5732 0.0385908 63.9956 0C62.6591 16.9735 48.5519 30.4096 31.2617 30.7698C40.5331 30.9048 49.1846 33.6319 56.5126 38.2628C69.3867 30.1266 78.1803 16.1374 79.0777 0.0771817Z" fill="#01DD01"/>
<path d="M29.9834 45.7689C30.1706 45.7689 30.3643 45.7818 30.5516 45.7818C30.7904 45.7818 31.0229 45.7689 31.2618 45.7625C31.0229 45.7625 30.7904 45.7432 30.5516 45.7432C30.3579 45.7432 30.1706 45.7625 29.9834 45.7625V45.7689Z" fill="#01DD01"/>
<path d="M31.2617 30.7695C31.0228 30.7695 30.7904 30.7888 30.5515 30.7888C30.3578 30.7888 30.1705 30.7695 29.9833 30.7695C27.0392 30.8017 24.1532 31.0976 21.3576 31.6378C21.3447 33.9468 21.3318 36.1658 21.3188 38.269C21.3318 40.3722 21.3511 42.5912 21.3576 44.9002C24.1597 45.4341 27.0392 45.7299 29.9833 45.7685C30.177 45.7685 30.3578 45.7492 30.5515 45.7492C30.7904 45.7492 31.0228 45.7621 31.2617 45.7685C40.533 45.6334 49.1846 42.9064 56.5126 38.2754C49.1846 33.6445 40.533 30.911 31.2617 30.7824V30.7695Z" fill="#0043EB"/>
<path d="M236.685 18.6006L236.678 30.2872H250.398V70.1452H261.652V11.6543L236.685 18.6006Z" fill="#01DD01"/>
</g>
<defs>
<clipPath id="clip0_307_140">
<rect width="262" height="88" fill="white"/>
</clipPath>
</defs>
</svg>
